<?xml version="1.0" encoding="UTF-8"?>
<svg width="512px" height="483px" viewBox="0 0 512 483" version="1.1" xmlns="http://www.w3.org/2000/svg" xmlns:xlink="http://www.w3.org/1999/xlink">
    <!-- Generator: Sketch 48.1 (47250) - http://www.bohemiancoding.com/sketch -->
    <title>Group</title>
    <desc>Created with Sketch.</desc>
    <defs>
        <linearGradient x1="77.8056156%" y1="11.3102051%" x2="33.2803389%" y2="89.0323743%" id="linearGradient-1">
            <stop stop-color="#E11717" offset="0%"></stop>
            <stop stop-color="#C00A0A" offset="100%"></stop>
        </linearGradient>
        <linearGradient x1="25.9048242%" y1="0%" x2="60.2385776%" y2="93.9692933%" id="linearGradient-2">
            <stop stop-color="#F4F4F4" offset="0%"></stop>
            <stop stop-color="#E5E5E5" offset="100%"></stop>
        </linearGradient>
        <linearGradient x1="74.0756299%" y1="0%" x2="35.4963843%" y2="93.0300894%" id="linearGradient-3">
            <stop stop-color="#F4F4F4" offset="0%"></stop>
            <stop stop-color="#E5E5E5" offset="100%"></stop>
        </linearGradient>
        <linearGradient x1="57.6196969%" y1="14.3595683%" x2="57.6196943%" y2="92.0512438%" id="linearGradient-4">
            <stop stop-color="#E11717" offset="0%"></stop>
            <stop stop-color="#C00A0A" offset="100%"></stop>
        </linearGradient>
        <linearGradient x1="78.2773495%" y1="0%" x2="78.2773486%" y2="100%" id="linearGradient-5">
            <stop stop-color="#E11717" offset="0%"></stop>
            <stop stop-color="#C00A0A" offset="100%"></stop>
        </linearGradient>
        <linearGradient x1="50%" y1="0%" x2="50%" y2="100%" id="linearGradient-6">
            <stop stop-color="#B6FBFF" offset="0%"></stop>
            <stop stop-color="#B0E1E4" offset="100%"></stop>
        </linearGradient>
        <linearGradient x1="23.4860288%" y1="14.3342075%" x2="78.2773486%" y2="100%" id="linearGradient-7">
            <stop stop-color="#E11717" offset="0%"></stop>
            <stop stop-color="#C00A0A" offset="100%"></stop>
        </linearGradient>
        <linearGradient x1="50%" y1="0%" x2="50%" y2="100%" id="linearGradient-8">
            <stop stop-color="#792525" stop-opacity="0.613988904" offset="0%"></stop>
            <stop stop-color="#431010" stop-opacity="0.613988904" offset="100%"></stop>
        </linearGradient>
    </defs>
    <g id="Page-1" stroke="none" stroke-width="1" fill="none" fill-rule="evenodd">
        <g id="Group">
            <g id="Group-2">
                <g>
                    <path d="M88.264667,179.545916 C88.270624,179.462901 88.3242369,179.403605 88.3301939,179.32059 C88.4374196,178.496372 88.6101723,177.689943 88.9616344,176.889444 L146.285714,45.7142857 L99.8152636,45.7142857 L0,182.771631 C3.68737456,203.887025 22.0170216,219.428571 43.9089465,219.428571 C66.9029139,219.428571 85.9712273,202.280097 88.264667,179.545916 Z" id="Path" fill="url(#linearGradient-1)"></path>
                    <path d="M318.802493,179.431887 C318.808425,179.479326 318.832153,179.503045 318.838085,179.544554 C321.121906,202.279511 340.110247,219.428571 363.001846,219.428571 C385.175672,219.428571 403.636065,203.329091 406.857143,181.661502 L347.691347,45.7142857 L299.428571,45.7142857 L318.790629,179.159115 C318.802493,179.242133 318.790629,179.33701 318.802493,179.431887 Z" id="Path" fill="url(#linearGradient-2)"></path>
                    <path d="M105.142857,181.661502 C108.364113,203.329091 126.819592,219.428571 148.994644,219.428571 C171.887507,219.428571 190.876896,202.279511 193.160843,179.544554 C193.166776,179.491186 193.196437,179.443747 193.20237,179.390379 C193.214234,179.313291 193.20237,179.242133 193.214234,179.159115 L212.571429,45.7142857 L164.305988,45.7142857 L105.142857,181.661502 Z" id="Path" fill="url(#linearGradient-3)"></path>
                    <path d="M257.14586,219.428571 C280.012549,219.428571 299.000067,202.718319 301.714286,180.434028 L281.928114,45.7142857 L232.3576,45.7142857 L212.571429,180.469607 C215.315671,202.736108 234.29118,219.428571 257.14586,219.428571 Z" id="Path" fill="url(#linearGradient-4)"></path>
                    <polygon id="Path" fill="url(#linearGradient-5)" points="422.851191 0 89.1428571 0 89.1428571 27.4285714 422.857143 27.4285714 422.857143 0"></polygon>
                    <path d="M413.958829,208.005926 C402.98855,225.86063 383.290698,237.522781 360.928889,237.522781 C338.567081,237.522781 318.863296,225.854705 307.898949,208 C296.922736,225.86063 277.230818,237.522781 254.869009,237.522781 C232.507201,237.522781 212.809349,225.854705 201.839069,208 C190.868789,225.86063 171.170937,237.522781 148.809129,237.522781 C126.44732,237.522781 106.749468,225.854705 95.7851218,208 C84.8148421,225.86063 65.111057,237.522781 42.7551816,237.522781 C41.4380361,237.522781 40.150556,237.416115 38.8571429,237.339078 L38.8571429,482.279788 L93.3347564,482.279788 L93.3347564,273.374411 L243.447815,273.374411 L243.447815,482.285714 L470.857143,482.285714 L470.857143,237.339078 C469.569663,237.422041 468.288116,237.522781 466.982836,237.522781 C444.626961,237.528707 424.929109,225.86063 413.958829,208.005926 Z" id="Path" fill="url(#linearGradient-6)"></path>
                    <polygon id="Path" fill="#FF0000" points="427.428571 397.690438 386.275777 397.690438 386.275777 438.857143 345.14087 438.857143 345.14087 397.690438 304 397.690438 304 356.57739 345.14087 356.57739 345.14087 315.428571 386.275777 315.428571 386.275777 356.57739 427.428571 356.57739"></polygon>
                    <path d="M412.182564,45.7142857 L365.714286,45.7142857 L423.037077,176.889444 C423.388568,177.689943 423.567292,178.496372 423.668569,179.32059 C426.027728,202.280097 445.097594,219.428571 468.087477,219.428571 C489.975228,219.428571 508.312325,203.887025 512,182.771631 L412.182564,45.7142857 Z" id="Path" fill="url(#linearGradient-7)"></path>
                    <polygon id="Path" fill="url(#linearGradient-8)" points="112 482.285714 226.285714 482.285714 226.285714 290.285714 112 290.285714"></polygon>
                    <path d="M201.142857,365.714286 C207.450163,365.714286 212.571429,370.835551 212.571429,377.142857 C212.571429,383.462328 207.450163,388.571429 201.142857,388.571429 C194.835551,388.571429 189.714286,383.462328 189.714286,377.142857 C189.714286,370.829469 194.829469,365.714286 201.142857,365.714286 Z" id="Path" fill="#FFFFFF"></path>
                </g>
            </g>
        </g>
    </g>
</svg>