<?xml version="1.0" encoding="UTF-8"?>
<svg width="512px" height="482px" viewBox="0 0 512 482" version="1.1" xmlns="http://www.w3.org/2000/svg" xmlns:xlink="http://www.w3.org/1999/xlink">
    <!-- Generator: Sketch 48.1 (47250) - http://www.bohemiancoding.com/sketch -->
    <title>Group</title>
    <desc>Created with Sketch.</desc>
    <defs>
        <linearGradient x1="75.7814884%" y1="8.23705295%" x2="26.7428309%" y2="86.897406%" id="linearGradient-1">
            <stop stop-color="#E11717" offset="0%"></stop>
            <stop stop-color="#C00A0A" offset="100%"></stop>
        </linearGradient>
        <linearGradient x1="50%" y1="0%" x2="50%" y2="100%" id="linearGradient-2">
            <stop stop-color="#F4F4F4" offset="0%"></stop>
            <stop stop-color="#E5E5E5" offset="100%"></stop>
        </linearGradient>
        <linearGradient x1="50%" y1="0%" x2="50%" y2="100%" id="linearGradient-3">
            <stop stop-color="#F4F4F4" offset="0%"></stop>
            <stop stop-color="#E5E5E5" offset="100%"></stop>
        </linearGradient>
        <linearGradient x1="50%" y1="11.5477095%" x2="50%" y2="100%" id="linearGradient-4">
            <stop stop-color="#E11717" offset="0%"></stop>
            <stop stop-color="#C00A0A" offset="100%"></stop>
        </linearGradient>
        <linearGradient x1="78.2773495%" y1="0%" x2="78.2773486%" y2="100%" id="linearGradient-5">
            <stop stop-color="#E11717" offset="0%"></stop>
            <stop stop-color="#C00A0A" offset="100%"></stop>
        </linearGradient>
        <linearGradient x1="50%" y1="0%" x2="50%" y2="100%" id="linearGradient-6">
            <stop stop-color="#B6FBFF" offset="0%"></stop>
            <stop stop-color="#B0E1E4" offset="100%"></stop>
        </linearGradient>
        <linearGradient x1="23.4860288%" y1="14.3342075%" x2="78.2773486%" y2="100%" id="linearGradient-7">
            <stop stop-color="#E11717" offset="0%"></stop>
            <stop stop-color="#C00A0A" offset="100%"></stop>
        </linearGradient>
        <linearGradient x1="50%" y1="0%" x2="50%" y2="100%" id="linearGradient-8">
            <stop stop-color="#792525" stop-opacity="0.613988904" offset="0%"></stop>
            <stop stop-color="#431010" stop-opacity="0.613988904" offset="100%"></stop>
        </linearGradient>
    </defs>
    <g id="Symbols" stroke="none" stroke-width="1" fill="none" fill-rule="evenodd">
        <g id="Group">
            <g id="Path">
                <path d="M88.5257151,179.051442 C88.6973867,178.002428 88.8690584,177.196406 89.2183213,176.39631 L146.183706,45.2873213 L100.004036,45.2873213 L0.813349118,182.275531 C4.47765056,203.380273 22.692603,218.91398 44.4475429,218.91398 C67.2976295,218.91398 86.2466261,201.774155 88.5257151,179.051442 Z" fill="url(#linearGradient-1)"></path>
                <path d="M317.796143,178.944763 C317.802063,178.992176 317.825742,179.015882 317.831662,179.057369 C320.11075,201.780082 339.059747,218.919906 361.903914,218.919906 C384.031796,218.919906 402.453938,202.829096 405.668341,181.173177 L346.625138,45.2991746 L298.462365,45.2991746 L317.784304,178.672138 C317.796143,178.75511 317.784304,178.849937 317.796143,178.944763 Z" fill="url(#linearGradient-2)"></path>
                <path d="M106.509799,181.16725 C109.724202,202.82317 128.140425,218.91398 150.268307,218.91398 C173.112473,218.91398 192.06147,201.774155 194.340559,179.051442 C194.376077,178.89735 200.832509,134.311285 213.709855,45.2932479 L165.547082,45.2932479 L106.509799,181.16725 Z" fill="url(#linearGradient-3)"></path>
                <path d="M256.08315,218.91398 C278.625412,218.91398 297.34354,202.212726 300.019249,179.940437 L280.5138,45.2932479 L231.646581,45.2932479 L212.141132,179.975997 C214.84644,202.230506 233.552728,218.91398 256.08315,218.91398 Z" fill="url(#linearGradient-4)"></path>
                <polygon fill="url(#linearGradient-5)" points="90.0589204 0.630136986 90.0589204 27.5074204 421.994906 27.5074204 421.994906 0.630136986"></polygon>
                <path d="M414.808376,207.167392 C403.862829,225.024339 384.209387,236.687954 361.897994,236.687954 C339.586601,236.687954 319.927239,225.018412 308.987612,207.161465 C298.036146,225.024339 278.388624,236.687954 256.077231,236.687954 C233.765838,236.687954 214.112396,225.018412 203.166849,207.161465 C192.221302,225.024339 172.56786,236.687954 150.256467,236.687954 C127.945074,236.687954 108.291632,225.018412 97.352005,207.161465 C86.4064584,225.024339 66.7470963,236.687954 44.4416232,236.687954 C43.1274472,236.687954 41.8428698,236.581275 40.5523727,236.504228 L40.5523727,481.475702 L94.9071641,481.475702 L94.9071641,272.544087 L244.681786,272.544087 L244.681786,481.481629 L471.57841,481.481629 L471.57841,236.504228 C470.293832,236.587201 469.015175,236.687954 467.712838,236.687954 C445.407365,236.693881 425.753923,225.024339 414.808376,207.167392 Z" fill="url(#linearGradient-6)"></path>
                <path d="M346.531569,395.063403 C408.010713,395.063403 408.675352,395.395723 408.675352,395.395723 C413.992467,396.392682 418.312623,401.377477 418.312623,407.026912 C418.312623,413.673306 412.995508,418.990421 406.349114,418.990421 C399.70272,418.990421 394.385605,413.673306 394.385605,407.026912 C394.385605,406.362273 394.385605,405.365314 394.717925,404.700674 L361.153636,404.700674 C361.153636,405.365314 361.485955,406.362273 361.485955,407.026912 C361.485955,413.673306 356.16884,418.990421 349.522446,418.990421 C342.876052,418.990421 337.558937,413.673306 337.558937,407.026912 C337.558937,405.365314 337.891257,403.703715 338.555896,402.042117 C337.891257,399.715879 334.23574,387.08773 315.293518,319.294513 L296.683615,319.294513 C294.025057,319.294513 291.69882,316.968275 291.69882,314.309717 C291.69882,311.65116 294.025057,309.324922 296.683615,309.324922 L318.949034,309.324922 C321.275272,309.324922 322.936871,310.654201 323.60151,312.980439 L328.253986,330.261063 L419.309582,330.261063 C420.306541,330.261063 420.971181,330.593382 421.63582,331.258022 C422.300459,331.922661 422.300459,332.91962 422.300459,333.58426 L411.333909,384.429173 C411.00159,385.758452 410.004631,386.755411 408.675352,386.755411 L344.537651,386.755411 L346.531569,395.063403 Z" fill="#FFFFFF"></path>
                <path d="M412.162265,45.2873213 L365.988515,45.2873213 L422.947979,176.39631 C423.297242,177.196406 423.474834,178.002428 423.575469,178.82623 C423.587308,178.909203 423.634666,178.968469 423.640586,179.051442 C425.919675,201.774155 444.868671,218.91398 467.712838,218.91398 C489.461858,218.91398 507.682731,203.380273 511.347032,182.275531 L412.162265,45.2873213 Z" fill="url(#linearGradient-7)"></path>
                <polygon fill="url(#linearGradient-8)" points="112.672218 481.475702 226.928571 481.475702 226.928571 290.323988 112.672218 290.323988"></polygon>
                <path d="M200.206993,364.892892 C206.345734,364.892892 211.330131,369.883118 211.330131,376.029037 C211.330131,382.186809 206.345734,387.165182 200.206993,387.165182 C194.068252,387.165182 189.083855,382.186809 189.083855,376.029037 C189.083855,369.877191 194.062333,364.892892 200.206993,364.892892 Z" fill="#FFFFFF"></path>
            </g>
        </g>
    </g>
</svg>